{
    "accessors" : [
        {
            "bufferView" : 0,
            "componentType" : 5121,
            "count" : 36,
            "max" : [
                23
            ],
            "min" : [
                0
            ],
            "type" : "SCALAR"
        },
        {
            "bufferView" : 1,
            "componentType" : 5126,
            "count" : 24,
            "max" : [
                1.0000004768371582,
                1.0,
                1.0000005960464478
            ],
            "min" : [
                -1.0000003576278687,
                -1.0,
                -1.0000003576278687
            ],
            "type" : "VEC3"
        },
        {
            "bufferView" : 2,
            "componentType" : 5126,
            "count" : 24,
            "max" : [
                1.0,
                1.0,
                1.0
            ],
            "min" : [
                -1.0,
                -1.0,
                -1.0
            ],
            "type" : "VEC3"
        },
        {
            "bufferView" : 3,
            "componentType" : 5126,
            "count" : 24,
            "max" : [
                3.427267358802055e-07,
                0.0,
                1.0,
                1.0
            ],
            "min" : [
                -1.0,
                -1.0,
                -1.0,
                1.0
            ],
            "type" : "VEC4"
        },
        {
            "bufferView" : 4,
            "componentType" : 5126,
            "count" : 24,
            "max" : [
                1.0,
                1.0
            ],
            "min" : [
                0.0,
                0.0
            ],
            "type" : "VEC2"
        },
        {
            "bufferView" : 5,
            "componentType" : 5121,
            "count" : 36,
            "max" : [
                23
            ],
            "min" : [
                0
            ],
            "type" : "SCALAR"
        },
        {
            "bufferView" : 6,
            "componentType" : 5126,
            "count" : 24,
            "max" : [
                1.0000004768371582,
                1.0,
                1.0000005960464478
            ],
            "min" : [
                -1.0000003576278687,
                -1.0,
                -1.0000003576278687
            ],
            "type" : "VEC3"
        },
        {
            "bufferView" : 7,
            "componentType" : 5126,
            "count" : 24,
            "max" : [
                1.0,
                1.0,
                1.0
            ],
            "min" : [
                -1.0,
                -1.0,
                -1.0
            ],
            "type" : "VEC3"
        },
        {
            "bufferView" : 8,
            "componentType" : 5121,
            "count" : 36,
            "max" : [
                23
            ],
            "min" : [
                0
            ],
            "type" : "SCALAR"
        },
        {
            "bufferView" : 9,
            "componentType" : 5126,
            "count" : 24,
            "max" : [
                1.0000004768371582,
                1.0,
                1.0000005960464478
            ],
            "min" : [
                -1.0000003576278687,
                -1.0,
                -1.0000003576278687
            ],
            "type" : "VEC3"
        },
        {
            "bufferView" : 10,
            "componentType" : 5126,
            "count" : 24,
            "max" : [
                1.0,
                1.0,
                1.0
            ],
            "min" : [
                -1.0,
                -1.0,
                -1.0
            ],
            "type" : "VEC3"
        },
        {
            "bufferView" : 11,
            "componentType" : 5126,
            "count" : 24,
            "max" : [
                0.8493009805679321,
                0.0,
                0.0266810841858387,
                1.0
            ],
            "min" : [
                -0.7070070505142212,
                -0.9998689889907837,
                -0.999862015247345,
                -1.0
            ],
            "type" : "VEC4"
        },
        {
            "bufferView" : 12,
            "componentType" : 5126,
            "count" : 24,
            "max" : [
                0.4485260248184204,
                0.5968253016471863
            ],
            "min" : [
                0.10150222480297089,
                0.25484663248062134
            ],
            "type" : "VEC2"
        },
        {
            "bufferView" : 13,
            "componentType" : 5121,
            "count" : 36,
            "max" : [
                23
            ],
            "min" : [
                0
            ],
            "type" : "SCALAR"
        },
        {
            "bufferView" : 14,
            "componentType" : 5126,
            "count" : 24,
            "max" : [
                1.0,
                1.0,
                1.0
            ],
            "min" : [
                -1.0,
                -1.0,
                -1.0
            ],
            "type" : "VEC3"
        },
        {
            "bufferView" : 15,
            "componentType" : 5126,
            "count" : 24,
            "max" : [
                1.0,
                1.0,
                1.0
            ],
            "min" : [
                -1.0,
                -1.0,
                -1.0
            ],
            "type" : "VEC3"
        },
        {
            "bufferView" : 16,
            "componentType" : 5121,
            "count" : 36,
            "max" : [
                23
            ],
            "min" : [
                0
            ],
            "type" : "SCALAR"
        },
        {
            "bufferView" : 17,
            "componentType" : 5126,
            "count" : 24,
            "max" : [
                1.0,
                1.0,
                1.0
            ],
            "min" : [
                -1.0,
                -1.0,
                -1.0
            ],
            "type" : "VEC3"
        },
        {
            "bufferView" : 18,
            "componentType" : 5126,
            "count" : 24,
            "max" : [
                1.0,
                1.0,
                1.0
            ],
            "min" : [
                -1.0,
                -1.0,
                -1.0
            ],
            "type" : "VEC3"
        },
        {
            "bufferView" : 19,
            "componentType" : 5121,
            "count" : 36,
            "max" : [
                23
            ],
            "min" : [
                0
            ],
            "type" : "SCALAR"
        },
        {
            "bufferView" : 20,
            "componentType" : 5126,
            "count" : 24,
            "max" : [
                1.0,
                1.0,
                1.0
            ],
            "min" : [
                -1.0,
                -1.0,
                -1.0
            ],
            "type" : "VEC3"
        },
        {
            "bufferView" : 21,
            "componentType" : 5126,
            "count" : 24,
            "max" : [
                1.0,
                1.0,
                1.0
            ],
            "min" : [
                -1.0,
                -1.0,
                -1.0
            ],
            "type" : "VEC3"
        },
        {
            "bufferView" : 22,
            "componentType" : 5121,
            "count" : 36,
            "max" : [
                23
            ],
            "min" : [
                0
            ],
            "type" : "SCALAR"
        },
        {
            "bufferView" : 23,
            "componentType" : 5126,
            "count" : 24,
            "max" : [
                1.0,
                1.0,
                1.0
            ],
            "min" : [
                -1.0,
                -1.0,
                -1.0
            ],
            "type" : "VEC3"
        },
        {
            "bufferView" : 24,
            "componentType" : 5126,
            "count" : 24,
            "max" : [
                1.0,
                1.0,
                1.0
            ],
            "min" : [
                -1.0,
                -1.0,
                -1.0
            ],
            "type" : "VEC3"
        },
        {
            "bufferView" : 25,
            "componentType" : 5121,
            "count" : 36,
            "max" : [
                23
            ],
            "min" : [
                0
            ],
            "type" : "SCALAR"
        },
        {
            "bufferView" : 26,
            "componentType" : 5126,
            "count" : 24,
            "max" : [
                1.0,
                1.0,
                1.0
            ],
            "min" : [
                -1.0,
                -1.0,
                -1.0
            ],
            "type" : "VEC3"
        },
        {
            "bufferView" : 27,
            "componentType" : 5126,
            "count" : 24,
            "max" : [
                1.0,
                1.0,
                1.0
            ],
            "min" : [
                -1.0,
                -1.0,
                -1.0
            ],
            "type" : "VEC3"
        },
        {
            "bufferView" : 28,
            "componentType" : 5121,
            "count" : 36,
            "max" : [
                23
            ],
            "min" : [
                0
            ],
            "type" : "SCALAR"
        },
        {
            "bufferView" : 29,
            "componentType" : 5126,
            "count" : 24,
            "max" : [
                1.0000004768371582,
                1.0,
                1.0000005960464478
            ],
            "min" : [
                -1.0000003576278687,
                -1.0,
                -1.0000003576278687
            ],
            "type" : "VEC3"
        },
        {
            "bufferView" : 30,
            "componentType" : 5126,
            "count" : 24,
            "max" : [
                1.0,
                1.0,
                1.0
            ],
            "min" : [
                -1.0,
                -1.0,
                -1.0
            ],
            "type" : "VEC3"
        }
    ],
    "asset" : {
        "generator" : "Khronos Blender glTF 2.0 exporter",
        "version" : "2.0"
    },
    "bufferViews" : [
        {
            "buffer" : 0,
            "byteLength" : 36,
            "byteOffset" : 0,
            "target" : 34963
        },
        {
            "buffer" : 0,
            "byteLength" : 288,
            "byteOffset" : 36,
            "target" : 34962
        },
        {
            "buffer" : 0,
            "byteLength" : 288,
            "byteOffset" : 324,
            "target" : 34962
        },
        {
            "buffer" : 0,
            "byteLength" : 384,
            "byteOffset" : 612,
            "target" : 34962
        },
        {
            "buffer" : 0,
            "byteLength" : 192,
            "byteOffset" : 996,
            "target" : 34962
        },
        {
            "buffer" : 0,
            "byteLength" : 36,
            "byteOffset" : 1188,
            "target" : 34963
        },
        {
            "buffer" : 0,
            "byteLength" : 288,
            "byteOffset" : 1224,
            "target" : 34962
        },
        {
            "buffer" : 0,
            "byteLength" : 288,
            "byteOffset" : 1512,
            "target" : 34962
        },
        {
            "buffer" : 0,
            "byteLength" : 36,
            "byteOffset" : 1800,
            "target" : 34963
        },
        {
            "buffer" : 0,
            "byteLength" : 288,
            "byteOffset" : 1836,
            "target" : 34962
        },
        {
            "buffer" : 0,
            "byteLength" : 288,
            "byteOffset" : 2124,
            "target" : 34962
        },
        {
            "buffer" : 0,
            "byteLength" : 384,
            "byteOffset" : 2412,
            "target" : 34962
        },
        {
            "buffer" : 0,
            "byteLength" : 192,
            "byteOffset" : 2796,
            "target" : 34962
        },
        {
            "buffer" : 0,
            "byteLength" : 36,
            "byteOffset" : 2988,
            "target" : 34963
        },
        {
            "buffer" : 0,
            "byteLength" : 288,
            "byteOffset" : 3024,
            "target" : 34962
        },
        {
            "buffer" : 0,
            "byteLength" : 288,
            "byteOffset" : 3312,
            "target" : 34962
        },
        {
            "buffer" : 0,
            "byteLength" : 36,
            "byteOffset" : 3600,
            "target" : 34963
        },
        {
            "buffer" : 0,
            "byteLength" : 288,
            "byteOffset" : 3636,
            "target" : 34962
        },
        {
            "buffer" : 0,
            "byteLength" : 288,
            "byteOffset" : 3924,
            "target" : 34962
        },
        {
            "buffer" : 0,
            "byteLength" : 36,
            "byteOffset" : 4212,
            "target" : 34963
        },
        {
            "buffer" : 0,
            "byteLength" : 288,
            "byteOffset" : 4248,
            "target" : 34962
        },
        {
            "buffer" : 0,
            "byteLength" : 288,
            "byteOffset" : 4536,
            "target" : 34962
        },
        {
            "buffer" : 0,
            "byteLength" : 36,
            "byteOffset" : 4824,
            "target" : 34963
        },
        {
            "buffer" : 0,
            "byteLength" : 288,
            "byteOffset" : 4860,
            "target" : 34962
        },
        {
            "buffer" : 0,
            "byteLength" : 288,
            "byteOffset" : 5148,
            "target" : 34962
        },
        {
            "buffer" : 0,
            "byteLength" : 36,
            "byteOffset" : 5436,
            "target" : 34963
        },
        {
            "buffer" : 0,
            "byteLength" : 288,
            "byteOffset" : 5472,
            "target" : 34962
        },
        {
            "buffer" : 0,
            "byteLength" : 288,
            "byteOffset" : 5760,
            "target" : 34962
        },
        {
            "buffer" : 0,
            "byteLength" : 36,
            "byteOffset" : 6048,
            "target" : 34963
        },
        {
            "buffer" : 0,
            "byteLength" : 288,
            "byteOffset" : 6084,
            "target" : 34962
        },
        {
            "buffer" : 0,
            "byteLength" : 288,
            "byteOffset" : 6372,
            "target" : 34962
        }
    ],
    "buffers" : [
        {
            "byteLength" : 6660,
            "uri" : "hoppinworldtest1.bin"
        }
    ],
    "images" : [
        {
            "name" : "Doge2",
            "uri" : "Doge2.jpg"
        },
        {
            "name" : "DatBoi",
            "uri" : "DatBoi.jpg"
        }
    ],
    "materials" : [
        {
            "name" : "Material",
            "pbrMetallicRoughness" : {
                "baseColorTexture" : {
                    "index" : 0
                }
            }
        },
        {
            "name" : "Material.001",
            "pbrMetallicRoughness" : {
                "baseColorTexture" : {
                    "index" : 1
                }
            }
        },
        {
            "name" : "red",
            "pbrMetallicRoughness" : {
                "baseColorFactor" : [
                    1.0,
                    0.03571663424372673,
                    0.05266867205500603,
                    1.0
                ]
            }
        }
    ],
    "meshes" : [
        {
            "name" : "Cube",
            "primitives" : [
                {
                    "attributes" : {
                        "NORMAL" : 2,
                        "POSITION" : 1,
                        "TANGENT" : 3,
                        "TEXCOORD_0" : 4
                    },
                    "indices" : 0,
                    "material" : 1
                }
            ]
        },
        {
            "name" : "Cube.001",
            "primitives" : [
                {
                    "attributes" : {
                        "NORMAL" : 7,
                        "POSITION" : 6
                    },
                    "indices" : 5,
                    "material" : 2
                }
            ]
        },
        {
            "name" : "Cube.002",
            "primitives" : [
                {
                    "attributes" : {
                        "NORMAL" : 10,
                        "POSITION" : 9,
                        "TANGENT" : 11,
                        "TEXCOORD_0" : 12
                    },
                    "indices" : 8,
                    "material" : 0
                }
            ]
        },
        {
            "name" : "Cube.003",
            "primitives" : [
                {
                    "attributes" : {
                        "NORMAL" : 15,
                        "POSITION" : 14
                    },
                    "indices" : 13,
                    "material" : 2
                }
            ]
        },
        {
            "name" : "Cube.004",
            "primitives" : [
                {
                    "attributes" : {
                        "NORMAL" : 18,
                        "POSITION" : 17
                    },
                    "indices" : 16,
                    "material" : 2
                }
            ]
        },
        {
            "name" : "Cube.005",
            "primitives" : [
                {
                    "attributes" : {
                        "NORMAL" : 21,
                        "POSITION" : 20
                    },
                    "indices" : 19,
                    "material" : 2
                }
            ]
        },
        {
            "name" : "Cube.006",
            "primitives" : [
                {
                    "attributes" : {
                        "NORMAL" : 24,
                        "POSITION" : 23
                    },
                    "indices" : 22,
                    "material" : 2
                }
            ]
        },
        {
            "name" : "Cube.007",
            "primitives" : [
                {
                    "attributes" : {
                        "NORMAL" : 27,
                        "POSITION" : 26
                    },
                    "indices" : 25,
                    "material" : 2
                }
            ]
        },
        {
            "name" : "Cube.008",
            "primitives" : [
                {
                    "attributes" : {
                        "NORMAL" : 30,
                        "POSITION" : 29
                    },
                    "indices" : 28,
                    "material" : 2
                }
            ]
        }
    ],
    "nodes" : [
        {
            "name" : "Camera",
            "rotation" : [
                0.483536034822464,
                0.33687159419059753,
                -0.20870360732078552,
                0.7804827094078064
            ],
            "translation" : [
                7.481131553649902,
                5.34366512298584,
                6.5076398849487305
            ]
        },
        {
            "mesh" : 0,
            "name" : "Cube",
            "scale" : [
                1.0,
                0.10840755701065063,
                3.4914650917053223
            ]
        },
        {
            "mesh" : 1,
            "name" : "Cube.001",
            "scale" : [
                57.91449737548828,
                0.10840755701065063,
                3.4914650917053223
            ],
            "translation" : [
                0.0,
                -0.2430090457201004,
                -8.385822296142578
            ]
        },
        {
            "mesh" : 2,
            "name" : "Cube.002",
            "scale" : [
                13.615917205810547,
                0.10840755701065063,
                13.608388900756836
            ],
            "translation" : [
                0.0,
                -1.0623688697814941,
                -26.179903030395508
            ]
        },
        {
            "mesh" : 3,
            "name" : "Cube.003",
            "translation" : [
                -8.189946174621582,
                -1.009261965751648,
                -28.68072509765625
            ]
        },
        {
            "mesh" : 4,
            "name" : "Cube.004",
            "translation" : [
                -8.189946174621582,
                0.21687757968902588,
                -29.8935546875
            ]
        },
        {
            "mesh" : 5,
            "name" : "Cube.005",
            "translation" : [
                -8.189946174621582,
                1.0952963829040527,
                -32.122032165527344
            ]
        },
        {
            "mesh" : 6,
            "name" : "Cube.006",
            "translation" : [
                -8.30785846710205,
                1.0704644918441772,
                -36.01002502441406
            ]
        },
        {
            "mesh" : 7,
            "name" : "Cube.007",
            "translation" : [
                -3.910627841949463,
                1.0704644918441772,
                -36.91471481323242
            ]
        },
        {
            "mesh" : 8,
            "name" : "Cube.008",
            "rotation" : [
                0.15170177817344666,
                0.0,
                -0.0,
                0.9884263277053833
            ],
            "scale" : [
                2.05104660987854,
                0.10840754956007004,
                4.69645881652832
            ],
            "translation" : [
                8.253890037536621,
                -0.016960501670837402,
                -33.67475509643555
            ]
        },
        {
            "name" : "Lamp",
            "rotation" : [
                0.16907575726509094,
                0.7558802962303162,
                -0.27217137813568115,
                0.570947527885437
            ],
            "scale" : [
                1.0,
                1.0,
                0.9999999403953552
            ],
            "translation" : [
                4.076245307922363,
                5.903861999511719,
                -1.0054539442062378
            ]
        },
        {
            "name" : "Spot",
            "rotation" : [
                0.0,
                0.0,
                -0.25838854908943176,
                0.966041088104248
            ],
            "translation" : [
                9.658120155334473,
                14.688265800476074,
                -31.977630615234375
            ]
        },
        {
            "name" : "Sun",
            "rotation" : [
                0.0,
                0.0,
                -0.19362761080265045,
                0.9810751080513
            ],
            "translation" : [
                10.328207015991211,
                38.32110595703125,
                0.6802845001220703
            ]
        }
    ],
    "samplers" : [
        {}
    ],
    "scene" : 0,
    "scenes" : [
        {
            "name" : "Scene",
            "nodes" : [
                9,
                12,
                11,
                8,
                7,
                6,
                5,
                4,
                3,
                2,
                1,
                10,
                0
            ]
        }
    ],
    "textures" : [
        {
            "sampler" : 0,
            "source" : 0
        },
        {
            "sampler" : 0,
            "source" : 1
        }
    ]
}
